<?xml version="1.0" encoding="utf-8" ?>
<svg baseProfile="full" height="500" version="1.1" width="500" xmlns="http://www.w3.org/2000/svg" xmlns:ev="http://www.w3.org/2001/xml-events" xmlns:xlink="http://www.w3.org/1999/xlink"><defs><linearGradient id="gradient" x1="0" x2="1" y1="0" y2="0"><stop offset="0" stop-color="#fbd300" /><stop offset="1" stop-color="#f06c00" /></linearGradient></defs><g id="shortne-logo"><path d="M 251,225 L 249,227 L 249,228 L 248,229 L 248,234 L 247,235 L 247,238 L 246,239 L 246,246 L 245,247 L 245,249 L 244,250 L 244,257 L 243,258 L 243,261 L 242,262 L 242,269 L 241,270 L 241,272 L 240,273 L 240,279 L 239,280 L 239,282 L 238,283 L 238,287 L 239,288 L 240,288 L 241,289 L 243,289 L 244,290 L 250,290 L 251,289 L 255,289 L 256,288 L 257,288 L 258,287 L 258,285 L 259,284 L 259,277 L 260,276 L 260,273 L 261,272 L 261,266 L 262,265 L 262,261 L 263,260 L 263,254 L 264,253 L 264,250 L 266,248 L 266,247 L 267,246 L 268,246 L 271,243 L 272,243 L 273,242 L 275,242 L 276,241 L 283,241 L 284,240 L 284,239 L 285,238 L 285,235 L 286,234 L 286,226 L 285,225 L 275,225 L 273,227 L 270,227 L 270,228 L 269,229 L 268,229 L 267,228 L 267,227 L 266,226 L 266,225 Z" fill="url(#gradient)" /><path d="M 424,223 L 423,224 L 421,224 L 420,225 L 417,225 L 415,227 L 413,227 L 411,229 L 410,229 L 408,231 L 407,231 L 403,235 L 403,236 L 402,237 L 401,237 L 401,238 L 399,240 L 399,241 L 397,243 L 397,245 L 396,246 L 396,247 L 395,248 L 395,250 L 394,251 L 394,252 L 393,253 L 393,257 L 392,258 L 392,260 L 391,261 L 391,271 L 392,272 L 392,274 L 393,275 L 393,277 L 395,279 L 395,280 L 397,282 L 397,283 L 398,283 L 399,284 L 399,285 L 400,285 L 401,286 L 402,286 L 403,287 L 404,287 L 405,288 L 406,288 L 407,289 L 410,289 L 411,290 L 428,290 L 429,289 L 431,289 L 432,288 L 434,288 L 435,287 L 436,287 L 442,281 L 442,276 L 441,276 L 440,275 L 440,274 L 436,270 L 435,270 L 433,272 L 432,272 L 430,274 L 425,274 L 424,275 L 420,275 L 419,274 L 416,274 L 415,273 L 415,272 L 414,272 L 413,271 L 413,270 L 412,269 L 412,268 L 411,267 L 412,266 L 416,266 L 417,265 L 419,265 L 420,264 L 427,264 L 428,263 L 430,263 L 431,262 L 433,262 L 434,261 L 436,261 L 437,260 L 438,260 L 439,259 L 440,259 L 442,257 L 443,257 L 445,255 L 445,254 L 447,252 L 447,251 L 448,250 L 448,249 L 449,248 L 449,242 L 450,241 L 449,240 L 449,235 L 448,234 L 448,233 L 447,232 L 447,231 L 444,228 L 444,227 L 443,227 L 441,225 L 438,225 L 437,224 L 436,224 L 435,223 Z" fill="url(#gradient)" /><path d="M 368,223 L 367,224 L 365,224 L 364,225 L 362,225 L 361,226 L 360,226 L 359,227 L 358,227 L 357,228 L 356,227 L 356,225 L 355,225 L 354,224 L 345,224 L 344,225 L 339,225 L 338,226 L 338,227 L 337,228 L 337,231 L 336,232 L 336,237 L 335,238 L 335,242 L 334,243 L 334,249 L 333,250 L 333,253 L 332,254 L 332,261 L 331,262 L 331,264 L 330,265 L 330,272 L 329,273 L 329,275 L 328,276 L 328,283 L 327,284 L 327,285 L 328,286 L 328,288 L 330,288 L 331,289 L 342,289 L 343,288 L 345,288 L 346,287 L 346,285 L 347,284 L 347,283 L 348,282 L 348,275 L 349,274 L 349,272 L 350,271 L 350,263 L 351,262 L 351,259 L 352,258 L 352,251 L 353,250 L 353,248 L 354,247 L 354,246 L 357,243 L 358,243 L 360,241 L 362,241 L 363,240 L 367,240 L 371,244 L 371,247 L 370,248 L 370,252 L 369,253 L 369,261 L 368,262 L 368,265 L 367,266 L 367,273 L 366,274 L 366,275 L 365,276 L 365,282 L 364,283 L 364,287 L 366,289 L 370,289 L 371,290 L 372,289 L 380,289 L 381,288 L 382,288 L 382,287 L 383,286 L 383,285 L 384,284 L 384,277 L 385,276 L 385,273 L 386,272 L 386,266 L 387,265 L 387,262 L 388,261 L 388,256 L 389,255 L 389,249 L 390,248 L 390,244 L 391,243 L 391,235 L 390,234 L 390,233 L 389,232 L 389,230 L 387,228 L 387,227 L 386,227 L 384,225 L 382,225 L 381,224 L 379,224 L 378,223 Z" fill="url(#gradient)" /><path d="M 208,223 L 207,224 L 205,224 L 204,225 L 201,225 L 199,227 L 198,227 L 197,228 L 196,228 L 195,229 L 194,229 L 194,230 L 193,231 L 192,231 L 192,232 L 191,233 L 190,233 L 190,234 L 189,235 L 188,235 L 188,236 L 186,238 L 186,239 L 184,241 L 184,242 L 183,243 L 183,244 L 182,245 L 182,247 L 181,248 L 181,250 L 180,251 L 180,255 L 179,256 L 179,262 L 178,263 L 178,271 L 179,272 L 179,275 L 180,276 L 180,278 L 181,279 L 181,280 L 182,281 L 182,282 L 183,282 L 184,283 L 184,284 L 186,286 L 187,286 L 188,287 L 189,287 L 190,288 L 191,288 L 192,289 L 195,289 L 196,290 L 210,290 L 211,289 L 214,289 L 215,288 L 217,288 L 218,287 L 219,287 L 220,286 L 221,286 L 224,283 L 225,283 L 225,282 L 226,281 L 227,281 L 227,280 L 228,279 L 229,279 L 229,278 L 231,276 L 231,275 L 233,273 L 233,272 L 234,271 L 234,270 L 235,269 L 235,267 L 236,266 L 236,264 L 237,263 L 237,260 L 238,259 L 238,254 L 239,253 L 239,242 L 238,241 L 238,237 L 237,236 L 237,235 L 236,234 L 236,233 L 233,230 L 233,229 L 232,229 L 230,227 L 229,227 L 227,225 L 224,225 L 223,224 L 221,224 L 220,223 Z" fill="url(#gradient)" /><path d="M 306,208 L 305,209 L 302,209 L 300,211 L 300,214 L 299,215 L 299,219 L 298,220 L 298,224 L 297,225 L 291,225 L 291,226 L 289,228 L 289,237 L 288,238 L 289,239 L 290,239 L 291,240 L 294,240 L 295,241 L 294,242 L 294,247 L 293,248 L 293,253 L 292,254 L 292,258 L 291,259 L 291,265 L 290,266 L 290,269 L 289,270 L 289,281 L 290,282 L 290,283 L 291,284 L 291,286 L 292,286 L 293,287 L 293,288 L 294,288 L 295,289 L 296,289 L 297,290 L 315,290 L 316,289 L 319,289 L 321,287 L 321,283 L 322,282 L 322,276 L 321,275 L 313,275 L 312,274 L 311,274 L 309,272 L 309,264 L 310,263 L 310,261 L 311,260 L 311,253 L 312,252 L 312,250 L 313,249 L 313,243 L 314,242 L 314,241 L 315,240 L 327,240 L 328,239 L 329,239 L 329,238 L 330,237 L 330,236 L 331,235 L 331,227 L 330,226 L 329,226 L 328,225 L 318,225 L 317,224 L 317,222 L 318,221 L 318,218 L 319,217 L 319,209 L 318,208 Z" fill="url(#gradient)" /><path d="M 131,195 L 130,196 L 129,196 L 127,198 L 127,202 L 126,203 L 126,207 L 125,208 L 125,216 L 124,217 L 124,220 L 123,221 L 123,229 L 122,230 L 122,232 L 121,233 L 121,240 L 120,241 L 120,243 L 119,244 L 119,252 L 118,253 L 118,255 L 117,256 L 117,263 L 116,264 L 116,266 L 115,267 L 115,274 L 114,275 L 114,278 L 113,279 L 113,288 L 114,288 L 115,289 L 119,289 L 120,290 L 121,290 L 122,289 L 123,289 L 124,290 L 125,290 L 126,289 L 130,289 L 132,287 L 132,284 L 133,283 L 133,280 L 134,279 L 134,272 L 135,271 L 135,268 L 136,267 L 136,261 L 137,260 L 137,257 L 138,256 L 138,249 L 139,248 L 139,246 L 142,243 L 143,243 L 144,242 L 145,242 L 146,241 L 147,241 L 148,240 L 153,240 L 156,243 L 156,250 L 155,251 L 155,256 L 154,257 L 154,263 L 153,264 L 153,269 L 152,270 L 152,273 L 151,274 L 151,280 L 150,281 L 150,284 L 149,285 L 150,286 L 150,287 L 151,288 L 153,288 L 154,289 L 162,289 L 163,288 L 167,288 L 169,286 L 169,281 L 170,280 L 170,278 L 171,277 L 171,269 L 172,268 L 172,266 L 173,265 L 173,260 L 174,259 L 174,257 L 175,256 L 175,248 L 176,247 L 176,242 L 177,241 L 177,236 L 176,235 L 176,233 L 175,232 L 175,230 L 173,228 L 173,227 L 172,227 L 170,225 L 167,225 L 166,224 L 165,224 L 164,223 L 153,223 L 152,224 L 150,224 L 149,225 L 147,225 L 146,226 L 144,226 L 143,225 L 143,219 L 144,218 L 144,216 L 145,215 L 145,208 L 146,207 L 146,205 L 147,204 L 147,198 L 145,196 L 143,196 L 142,195 Z" fill="url(#gradient)" /><path d="M 89,193 L 88,194 L 85,194 L 84,195 L 81,195 L 80,196 L 79,196 L 78,197 L 77,197 L 76,198 L 75,198 L 74,199 L 73,199 L 69,203 L 69,204 L 68,205 L 67,205 L 67,206 L 65,208 L 65,209 L 63,211 L 63,214 L 62,215 L 62,216 L 61,217 L 61,228 L 62,229 L 62,230 L 63,231 L 63,234 L 65,236 L 65,237 L 73,245 L 74,245 L 78,249 L 79,249 L 82,252 L 83,252 L 88,257 L 88,258 L 89,259 L 89,260 L 90,261 L 90,265 L 89,266 L 89,267 L 88,268 L 88,269 L 87,270 L 86,270 L 86,271 L 85,272 L 83,272 L 81,274 L 72,274 L 71,273 L 70,273 L 69,272 L 66,272 L 64,270 L 62,270 L 61,269 L 61,268 L 59,268 L 58,267 L 57,268 L 56,268 L 55,269 L 55,270 L 53,272 L 53,273 L 52,274 L 52,275 L 51,276 L 51,278 L 50,279 L 50,283 L 53,286 L 54,286 L 55,287 L 56,287 L 57,288 L 59,288 L 60,289 L 62,289 L 63,290 L 70,290 L 71,291 L 80,291 L 81,290 L 88,290 L 89,289 L 91,289 L 92,288 L 94,288 L 95,287 L 96,287 L 97,286 L 98,286 L 99,285 L 100,285 L 106,279 L 106,278 L 107,277 L 108,277 L 108,275 L 110,273 L 110,271 L 111,270 L 111,267 L 112,266 L 112,255 L 111,254 L 111,252 L 110,251 L 110,250 L 108,248 L 108,247 L 101,240 L 100,240 L 98,238 L 97,238 L 92,233 L 91,233 L 89,231 L 88,231 L 87,230 L 87,229 L 84,226 L 84,225 L 83,224 L 83,217 L 88,212 L 89,212 L 91,210 L 98,210 L 99,211 L 100,211 L 101,212 L 103,212 L 105,214 L 107,214 L 108,215 L 108,216 L 109,216 L 110,217 L 112,217 L 115,214 L 115,213 L 116,212 L 116,211 L 117,210 L 117,209 L 118,208 L 118,206 L 119,205 L 119,200 L 117,198 L 116,198 L 115,197 L 114,197 L 113,196 L 112,196 L 111,195 L 107,195 L 106,194 L 91,194 L 90,193 Z" fill="url(#gradient)" /></g></svg>